<svg width="300" height="300" viewBox="0 0 300 300" fill="none" xmlns="http://www.w3.org/2000/svg">
<path d="M118.6 31.4L101.8 56.2C92.9 69.4 88.1 85 88.1 101V185.5C88.1 204.6 103.6 220.2 122.8 220.2C137.1 220.2 150 211.4 155.2 198L199.3 83.5C199.3 83.5 193.7 60.2 150.1 54.9C106.5 49.6 118.6 31.4 118.6 31.4Z" fill="#B0E6F8"/>
<path d="M119.9 31.4C119.9 31.4 119.9 53.1 148.3 54.8C176.7 56.5 210.1 64.8 206.8 136.7C203.5 208.6 207 220.3 207 220.3" stroke="#363636" stroke-width="10" stroke-linecap="round" stroke-linejoin="round"/>
<path d="M169.3 168.4C169.3 168.4 182.6 208.5 180.9 226.9L179.2 245.3" stroke="#363636" stroke-width="10" stroke-linecap="round" stroke-linejoin="round"/>
<path d="M183.4 125.8L146.6 220.2C146.6 220.2 170.2 257 169.3 268.7" stroke="#363636" stroke-width="10" stroke-linecap="round" stroke-linejoin="round"/>
<path d="M88.1 80.5V268.6" stroke="#363636" stroke-width="10" stroke-linecap="round" stroke-linejoin="round"/>
<path d="M119.9 104.9C119.9 104.9 109.9 140 146.6 156.7" stroke="#363636" stroke-width="10" stroke-linecap="round" stroke-linejoin="round"/>
</svg>
