<svg width="300" height="300" viewBox="0 0 300 300" fill="none" xmlns="http://www.w3.org/2000/svg">
<path d="M189.4 105.6L80.4 150.3L77.5 227.9H145.6L157.7 198.3L179.6 200.9L223.3 181.3L228.1 148.1L189.4 105.6Z" fill="#B0E6F8"/>
<path d="M226.8 80.8C227 81.8 227.8 82.6 228.8 82.8L241.2 85.6C241.5 85.6 241.7 85.8 241.7 86.1C241.7 86.4 241.5 86.6 241.2 86.6C237.9 87.3 231.8 88.7 228.8 89.4C227.8 89.6 227 90.4 226.8 91.4L223.6 112.9C223.5 113.2 223.2 113.4 222.9 113.4C222.7 113.3 222.5 113.2 222.4 112.9L219.2 91.4C219 90.4 218.2 89.6 217.2 89.4C214.2 88.8 208.1 87.4 204.8 86.6C204.5 86.6 204.3 86.4 204.3 86.1C204.3 85.8 204.5 85.6 204.8 85.6C208.2 84.8 214.2 83.5 217.2 82.8C218.2 82.6 219 81.8 219.2 80.8L222.4 59.3C222.5 59 222.8 58.8 223.1 58.8C223.3 58.9 223.5 59 223.6 59.3C224.6 66.1 226.7 79.6 226.8 80.8Z" fill="#B0E6F8"/>
<path d="M60.9 123.3C61 123.8 61.3 124.1 61.8 124.2L67.5 125.5C67.6 125.5 67.7 125.6 67.7 125.7C67.7 125.8 67.6 125.9 67.5 125.9C66 126.2 63.2 126.9 61.8 127.2C61.3 127.3 61 127.6 60.9 128.1L59.4 137.9C59.4 138.1 59.2 138.2 59.1 138.1C59 138.1 58.9 138 58.9 137.9L57.4 128.1C57.3 127.6 56.9 127.3 56.5 127.2C55.1 126.9 52.4 126.3 50.8 125.9C50.7 125.9 50.6 125.8 50.6 125.7C50.6 125.6 50.7 125.5 50.8 125.5C52.3 125.2 55.1 124.5 56.5 124.2C57 124.1 57.3 123.8 57.4 123.3L58.9 113.5C58.9 113.3 59.1 113.2 59.2 113.3C59.3 113.3 59.4 113.4 59.4 113.5C59.9 116.6 60.8 122.7 60.9 123.3Z" fill="#B0E6F8"/>
<path d="M228.1 148.1C225.8 138.9 220.5 131 212.2 124.5C198.2 113.6 188.7 97.9 185.4 80.5L184.2 74.3C183.9 72.9 182.6 72.1 181.2 72.3C179.8 72.5 179 73.9 179.2 75.3L180.4 81.5C184 100.1 194.1 116.8 209.1 128.5C216.5 134.2 221.2 141.3 223.3 149.3C226.3 161.4 225.1 170.9 219.4 178.4C210.3 190.3 189.6 197 157.7 198.4C159.7 196.6 161.9 194.8 164.3 192.9L164.6 192.6C169.8 188.5 175.2 184 179.4 178.6C183.9 172.6 186.5 165.3 186.7 157.8C187.2 143.7 182.4 129 173.1 116.5C171.4 114.3 169.7 112.2 167.8 110.2C159.9 101.9 155.8 91 156.6 80.5C156.7 79.6 156.7 78.7 156.9 77.7C157 76.3 156 75 154.6 74.9C153.2 74.8 152 75.7 151.8 77.1C151.7 78.1 151.6 79.2 151.5 80.2C150.7 92.2 155.3 104.4 164.1 113.8C165.9 115.7 167.5 117.6 169 119.7C177.6 131.3 182.1 144.8 181.6 157.7C181.5 164.2 179.3 170.5 175.4 175.6C171.6 180.6 166.5 184.8 161.5 188.7L161.2 189C153.6 194.9 145.8 201.1 144.8 212.1C144.2 219.2 143.4 225.3 143.4 225.3C143.2 226.7 144.2 228 145.6 228.1H145.9C147.2 228.1 148.3 227.1 148.4 225.9C148.4 225.8 149.2 219.7 149.8 212.5C150.1 209.3 151.2 206.3 153.1 203.6C164.6 203.4 176 202.3 187.3 200.1V228.1C187.3 229.5 188.4 230.6 189.8 230.6C191.2 230.6 192.3 229.5 192.3 228.1V198.9C206.9 195.2 217.2 189.4 223.3 181.4C230 172.7 231.5 161.8 228.1 148.1Z" fill="#363636" stroke="#363636" stroke-width="5" stroke-miterlimit="10"/>
<path d="M87 69.3C85.6 69.3 84.5 70.4 84.5 71.8V125.4L76 147.9C75.9 148.2 75.9 148.4 75.8 148.7H75.5C73.9 154 65 185.4 74.4 226C74.7 227.2 75.7 228 76.9 228C77.1 228 77.3 228 77.5 227.9C78.9 227.6 79.7 226.2 79.4 224.8C70.3 185.9 79 155.1 80.4 150.3C80.5 150.1 80.6 149.9 80.7 149.7L89.4 126.7C89.6 126.1 89.6 125.5 89.4 125V71.8C89.5 70.5 88.4 69.3 87 69.3Z" fill="#363636" stroke="#363636" stroke-width="5" stroke-miterlimit="10"/>
<path d="M167.9 168.1C175 157 171.7 142.2 160.6 135.1" stroke="white" stroke-width="5" stroke-linecap="round" stroke-linejoin="round"/>
</svg>
