<svg width="300" height="300" viewBox="0 0 300 300" fill="none" xmlns="http://www.w3.org/2000/svg">
<path d="M247.3 76.9C247.4 77.9 248.3 78.7 249.3 78.9L261.7 81.7C262.3 81.8 262.3 82.6 261.7 82.7C258.4 83.4 252.3 84.8 249.3 85.5C248.2 85.7 247.4 86.6 247.3 87.5L244.1 109C244 109.6 243 109.6 242.9 109L239.7 87.5C239.6 86.5 238.7 85.7 237.7 85.5C234.7 84.9 228.6 83.5 225.3 82.7C224.7 82.6 224.7 81.8 225.3 81.7C228.6 81 234.7 79.6 237.7 78.9C238.8 78.7 239.6 77.8 239.7 76.9L242.9 55.4C243 54.8 244 54.8 244.1 55.4C245.2 62.1 247.2 75.6 247.3 76.9Z" fill="#B0E6F8"/>
<path d="M49.6 92.7C49.7 93.1 50 93.5 50.5 93.6L56.2 94.9C56.5 94.9 56.5 95.3 56.2 95.3C54.7 95.6 51.9 96.3 50.5 96.6C50 96.7 49.6 97.1 49.6 97.5L48.1 107.3C48 107.6 47.6 107.6 47.6 107.3L46.1 97.5C46 97.1 45.7 96.7 45.2 96.6C43.8 96.3 41.1 95.7 39.5 95.3C39.2 95.3 39.2 94.9 39.5 94.9C41 94.6 43.8 93.9 45.2 93.6C45.7 93.5 46.1 93.1 46.1 92.7L47.6 82.9C47.7 82.6 48.1 82.6 48.1 82.9C48.6 85.9 49.6 92.1 49.6 92.7Z" fill="#B0E6F8"/>
<path d="M167.6 241.5L163.5 168L209 137.4C209.1 137.4 226 233 167.6 241.5Z" fill="#B0E6F8"/>
<path d="M133.3 241.5L137.4 168L91.9 137.4C91.9 137.4 74.9 233 133.3 241.5Z" fill="#B0E6F8"/>
<path d="M90.9 73C90.9 73 42.1 159.1 84.7 234.7" stroke="#363636" stroke-width="10" stroke-miterlimit="10" stroke-linecap="round" stroke-linejoin="round"/>
<path d="M132.4 237.3C132.4 237.3 142.1 193.9 132.4 172.6" stroke="#363636" stroke-width="10" stroke-miterlimit="10" stroke-linecap="round" stroke-linejoin="round"/>
<path d="M209.1 73C209.1 73 257.9 159.1 215.3 234.7" stroke="#363636" stroke-width="10" stroke-miterlimit="10" stroke-linecap="round" stroke-linejoin="round"/>
<path d="M167.6 237.3C167.6 237.3 157.9 193.9 167.6 172.6" stroke="#363636" stroke-width="10" stroke-miterlimit="10" stroke-linecap="round" stroke-linejoin="round"/>
<path d="M148.7 106.2C148.7 106.2 153.8 109.4 150.3 113.7" stroke="#363636" stroke-width="7" stroke-miterlimit="10" stroke-linecap="round" stroke-linejoin="round"/>
<path d="M70.9 130L113.4 135.5C136.7 138.5 160.2 138.5 183.5 135.5L226 130L167.6 172.5H132.3L70.9 130Z" stroke="#363636" stroke-width="10" stroke-miterlimit="10" stroke-linecap="round" stroke-linejoin="round"/>
<path d="M70.9 130L73.6 118.2C96.9 121.2 132.4 143.7 226 120.2V130.1L167.6 172.6H132.3L70.9 130Z" fill="#363636" stroke="#363636" stroke-width="2" stroke-miterlimit="10"/>
<path d="M181.7 225.2C181.7 225.2 173.9 207.7 177.8 189.5" stroke="white" stroke-width="8" stroke-miterlimit="10" stroke-linecap="round" stroke-linejoin="round"/>
</svg>
