<svg width="300" height="300" viewBox="0 0 300 300" fill="none" xmlns="http://www.w3.org/2000/svg">
<path d="M242 170.2L151.1 191.2L66.4001 170.2L60.6001 145.8C71.6001 116.5 121.7 99.3 153 99.3C187 99.3 239.9 113 248.7 145.8L242 170.2Z" fill="#B0E6F8"/>
<path d="M154.2 116.7C154.2 116.7 161.9 121.6 156.6 128" stroke="#363636" stroke-width="9" stroke-miterlimit="10" stroke-linecap="round" stroke-linejoin="round"/>
<path d="M212.1 63.3C200.4 79.4 246.8 124.7 248.7 145.8C250 159.8 239.1 162.6 241.7 168.2C247.9 181.7 256 201.1 236.2 227.3" stroke="#363636" stroke-width="10" stroke-miterlimit="10" stroke-linecap="round" stroke-linejoin="round"/>
<path d="M97.2001 63.3C108.9 79.4 62.5001 124.7 60.6001 145.8C59.3001 159.8 70.2001 162.6 67.6001 168.2C61.4001 181.7 53.3001 201.1 73.1001 227.3" stroke="#363636" stroke-width="10" stroke-miterlimit="10" stroke-linecap="round" stroke-linejoin="round"/>
<path d="M67.7002 168.3C67.7002 168.3 128.6 191.2 151 191.2C173.4 191.2 241.6 168.3 241.6 168.3" stroke="#363636" stroke-width="10" stroke-miterlimit="10" stroke-linecap="round" stroke-linejoin="round"/>
<path d="M107.9 180.5C107.9 180.5 97.3001 168.7 99.1001 152.2" stroke="#363636" stroke-width="10" stroke-miterlimit="10" stroke-linecap="round" stroke-linejoin="round"/>
<path d="M197.7 180.5C197.7 180.5 208.3 168.7 206.5 152.2" stroke="#363636" stroke-width="10" stroke-miterlimit="10" stroke-linecap="round" stroke-linejoin="round"/>
<path d="M224.2 125.5C224.2 125.5 246.4 143.9 232.2 156.7" stroke="white" stroke-width="5" stroke-miterlimit="10" stroke-linecap="round" stroke-linejoin="round"/>
</svg>
