<svg width="300" height="300" viewBox="0 0 300 300" fill="none" xmlns="http://www.w3.org/2000/svg">
<path d="M157.7 150.8L179.7 163.8L195.1 161.8L217.4 147.8L222.3 134.9C224.8 128.2 226.1 121.2 226.1 114V92.3C226.1 76.9 216.7 63.1 202.5 57.3C192.9 53.4 182.8 51.2 172.5 50.5L159.7 50.2" fill="#B0E6F8"/>
<path d="M157.8 150.8L135.8 163.8L120.4 161.8L98.0999 147.8L93.1999 134.9C90.6999 128.2 89.3999 121.2 89.3999 114V92.3C89.3999 76.9 98.7999 63.1 113.1 57.3C122.7 53.5 132.8 51.2 143.1 50.5L166.5 47.9" fill="#B0E6F8"/>
<path d="M156 81.5C171.574 81.5 184.2 68.8744 184.2 53.3C184.2 37.7256 171.574 25.1 156 25.1C140.426 25.1 127.8 37.7256 127.8 53.3C127.8 68.8744 140.426 81.5 156 81.5Z" fill="white"/>
<path d="M159.2 140.4C161.3 141.5 162.1 143.4 162.4 145.6C163.3 150.5 167 153.2 170.9 155.5C177.9 159.7 185.3 159.6 192.9 157.4C199.3 155.5 205.6 153.7 211 149.5C214.9 146.5 217.1 142.5 218.6 138C220.1 133.5 221.3 129.1 222.6 124.6C222.7 123.9 222.7 123.3 222.6 122.6C222.3 120.8 223.2 118.9 224.8 118.1C226.3 117.2 228.2 117.3 229.7 118.4C230.9 119.3 231.6 120.7 231.5 122.2C231.5 126 230.9 129.8 229.7 133.4C228.3 138.6 228.3 144.2 229.7 149.4C229.9 150.1 230 150.8 230 151.5C230.7 159.8 231.9 168.1 234.7 176C236.5 181.2 239 186.1 243.3 189.8C244.9 191.2 245.7 193.1 244.7 195.3C244 197.2 242 198.4 240 198C238.8 197.7 237.6 197.1 236.7 196.3C232.5 192.9 221.4 169.2 220.8 155.7C220.8 155 220.7 154.3 220.7 153.7C220.7 153.7 220.6 153.6 220.4 153.5C216.6 157.4 212 160.5 206.9 162.5C199.6 165.5 192.1 167.9 184.3 168.2C174.4 168.6 166 164.8 158.9 158C158.6 157.7 158.4 157.4 158.1 157.1C154.5 159.6 151.3 162.2 147.8 164.2C140.4 168.4 131.6 169.5 123.4 167.2C114.1 164.9 104.9 162.3 97.4 155.9C96.5 155.1 95.6 154.2 94.6 153.4L94.1 153.7C95.1 167.3 83.7 190.4 81.4 193.5C80.4 194.8 79.2 196 77.9 197C76 198.7 73.1 198.6 71.4 196.8C69.7 195.1 69.7 192.4 71.4 190.7C71.5 190.6 71.5 190.6 71.6 190.5C81.3 181.6 82.8 169.5 84.8 157.5C85.1 155.3 85.3 153.2 85.4 151C85.4 150.5 85.5 150 85.6 149.6C87 144 86.9 138.2 85.5 132.6C85.2 131.7 85 130.8 84.8 129.9C84.2 127.5 83.9 125 83.9 122.5C83.8 120 85.7 117.8 88.3 117.7C88.4 117.7 88.4 117.7 88.5 117.7C90.8 117.7 92.9 119.4 92.8 121.7C92.6 126 94.3 129.8 95.4 133.7C96.7 138.3 98.1 143 101.3 146.7C105.6 151.8 111.5 154.3 117.7 156.1C121.6 157.3 125.5 158.3 129.5 158.9C137.9 160 144.9 156.8 150.5 150.8C151.8 149.3 152.6 147.5 152.9 145.6C153.3 143.4 154.2 141.7 156.2 140.6" fill="#363636"/>
<path d="M132 48C136 49.7 137.1 53.3 134.4 55.8C133.6 56.5 132.7 57 131.6 57.1C125.1 57.5 119.9 61 115.1 64.9C111.8 67.5 107.8 69.1 103.6 69.2C93.1 70.1 83.2 73 74.6 79.4C65.7 86 61.2 94.9 60.7 105.8C60.4 113.2 60.5 120.7 63.4 127.8C64.4 130.3 63.5 132.6 62.2 134.8C59.8 138.5 57.6 142.4 55.6 146.3C52.5 153.2 52.4 160.8 52.1 168.2C52 170.8 52.1 173.3 52 175.9C52 178.5 50 180.7 47.4 180.8C44.9 180.8 42.9 178.9 42.9 176.4C42.9 176.3 42.9 176.2 42.9 176.1C42.9 164.7 42.7 153.3 47.2 142.5C48.8 138.6 51.4 135 53.4 131.3C53.9 130.4 54 129.3 53.8 128.3C50.5 115 49.9 101.8 55.4 88.9C59.6 79.1 67.1 72.2 76.4 67.4C85.4 62.9 95.3 60.2 105.4 59.6C106.4 59.4 107.4 59 108.2 58.4C113.7 54.3 119.2 50.3 126.1 48.6C127 48.4 128 48.1 128.9 47.9L132 48Z" fill="#363636"/>
<path d="M186.6 48C194.7 49.5 201.3 53.8 207.6 58.8C208.5 59.4 209.6 59.8 210.7 59.8C221.8 60.8 232.5 63.4 242.1 69.3C257.1 78.5 264.1 92 263.9 109.4C263.8 116.1 263.6 122.8 261.3 129.2C261.1 129.8 261.6 130.9 262.1 131.6C266.8 138.3 270.3 145.5 271.2 153.7C272 161 272.2 168.4 272.6 175.8C272.9 178.3 271.1 180.6 268.5 180.9C268.3 180.9 268.2 180.9 268 180.9C265.4 180.9 263.5 178.8 263.3 175.6C263 169.7 262.8 163.9 262.4 158C261.9 150.7 259.3 143.7 255 137.7C254.2 136.6 253.5 135.5 252.8 134.3C251.5 132.2 251.2 129.5 252.1 127.2C255.7 115.7 256.2 104.1 251.5 92.8C248.2 84.9 242.1 79.5 234.6 75.7C226.3 71.4 217.4 69.6 208.1 68.9C206.2 68.6 204.4 68 202.8 66.9C198.7 64.4 194.8 61.5 190.7 59.1C188.9 58.2 186.9 57.7 184.9 57.5C181.7 57 180 55.8 179.7 53.4C179.3 50.8 180.3 49.4 183.4 48H186.6Z" fill="#363636"/>
<path d="M192.8 86.5C192.8 86.5 215.3 91.2 215.3 105.8" stroke="white" stroke-width="5" stroke-linecap="round" stroke-linejoin="round"/>
<path d="M155 211.9C155 211.9 163.6 217.3 157.7 224.5" stroke="#363636" stroke-width="9" stroke-linecap="round" stroke-linejoin="round"/>
<path d="M94.7 153.3L100.5 229.7C101 235.8 104 241.5 108.7 245.4L121.9 256" stroke="#363636" stroke-width="9" stroke-linecap="round" stroke-linejoin="round"/>
<path d="M220 153.3L214.2 229.7C213.7 235.8 210.8 241.5 206 245.4L192.8 256" stroke="#363636" stroke-width="9" stroke-linecap="round" stroke-linejoin="round"/>
</svg>
