<svg width="300" height="300" viewBox="0 0 300 300" fill="none" xmlns="http://www.w3.org/2000/svg">
<path d="M260 90.6C260.1 91.4 260.8 92.1 261.7 92.3L272.3 94.7C272.8 94.8 272.8 95.4 272.3 95.5C269.5 96.1 264.3 97.3 261.7 97.9C260.8 98.1 260.1 98.8 260 99.6L257.3 117.9C257.2 118.4 256.4 118.4 256.3 117.9L253.6 99.6C253.5 98.8 252.8 98.1 251.9 97.9C249.4 97.4 244.2 96.2 241.3 95.5C240.8 95.4 240.8 94.8 241.3 94.7C244.1 94.1 249.3 92.9 251.9 92.3C252.8 92.1 253.5 91.4 253.6 90.6L256.3 72.3C256.4 71.8 257.2 71.8 257.3 72.3C258.2 78 259.9 89.5 260 90.6Z" fill="#B0E6F8"/>
<path d="M101.9 68.5C101.9 68.5 180 99.5 205.2 68.5C216.7 74.7 234 111.9 234 111.9C234 111.9 227.5 162.8 220.9 178.3C218 185.1 210 196.8 202.2 207.5C191.6 221.9 174.8 230.5 156.9 230.5H153.8C134.2 230.5 116.1 220.3 105.9 203.6C91.6 180.2 73.2 149.6 73 147.8C70.3 116.6 101.9 68.5 101.9 68.5Z" fill="#B0E6F8"/>
<path d="M119.7 230.5C116.1 214.5 95.6999 191.1 95.6999 191.1C41.2999 128.5 101.9 68.5 101.9 68.5C101.9 68.5 164.4 90.6 205.2 68.5C205.2 68.5 265.7 128.5 211.4 191.1C211.4 191.1 188.3 214.5 184.7 230.5" stroke="#363636" stroke-width="10" stroke-miterlimit="10" stroke-linecap="round" stroke-linejoin="round"/>
<path d="M160.3 234.7C191.6 109 83.2999 95 83.2999 95" stroke="#363636" stroke-width="10" stroke-miterlimit="10" stroke-linecap="round" stroke-linejoin="round"/>
<path d="M210.6 110.8C210.6 110.8 227.6 122.7 218.2 156.1" stroke="white" stroke-width="8" stroke-miterlimit="10" stroke-linecap="round" stroke-linejoin="round"/>
<path d="M101.9 68.5C101.9 68.5 143.1 78.6 156.9 78.3C170.7 77.9 205.2 68.5 205.2 68.5L218.9 86.5C218.9 86.5 171.8 109.1 159.2 149.6L150.3 141.6C150.3 141.6 105.7 96.2 83.2999 95.1L101.9 68.5Z" fill="#363636" stroke="#363636" stroke-width="2" stroke-miterlimit="10"/>
<path d="M153.4 103.2L152.2 102C147.6 97.9 144.5 95.1 144.5 91.8C144.5 89 146.6 86.9 149.4 86.9C150.9 86.9 152.4 87.6 153.4 88.8C154.4 87.6 155.9 86.9 157.4 86.9C160.2 86.9 162.3 89 162.3 91.8C162.3 95.2 159.3 97.9 154.6 102L153.4 103.2Z" fill="white"/>
</svg>
