<svg width="300" height="300" viewBox="0 0 300 300" fill="none" xmlns="http://www.w3.org/2000/svg">
<path d="M242.6 182.8L147.8 204.7L59.5 182.8L81.8 134.3C93.3 103.8 117.3 83.1 149.9 83.1C185.4 83.1 214.7 106.9 223.9 141.2L242.6 182.8Z" fill="#B0E6F8"/>
<path d="M151 127C151 127 159 132.1 153.5 138.8" stroke="#363636" stroke-width="9" stroke-miterlimit="10" stroke-linecap="round" stroke-linejoin="round"/>
<path d="M90 71.3C102.2 88.1 79.7 137.4 70.4 157.4C67.6 163.3 61.9 174.9 59.2 180.8C52.7 194.9 44.3 215.1 64.9 242.5" stroke="#363636" stroke-width="10" stroke-miterlimit="10" stroke-linecap="round" stroke-linejoin="round"/>
<path d="M211.4 71.3C199.2 88.1 221.7 137.4 231 157.4C233.8 163.3 239.5 174.9 242.2 180.8C248.7 194.9 257.1 215.1 236.5 242.5" stroke="#363636" stroke-width="10" stroke-miterlimit="10" stroke-linecap="round" stroke-linejoin="round"/>
<path d="M59.1 180.7C59.1 180.7 124.3 204.6 147.7 204.6C171.1 204.6 242.2 180.7 242.2 180.7" stroke="#363636" stroke-width="10" stroke-miterlimit="10" stroke-linecap="round" stroke-linejoin="round"/>
<path d="M105.4 190.2L117.7 163.9" stroke="#363636" stroke-width="10" stroke-miterlimit="10" stroke-linecap="round" stroke-linejoin="round"/>
<path d="M196.1 190.2L183.8 163.9" stroke="#363636" stroke-width="10" stroke-miterlimit="10" stroke-linecap="round" stroke-linejoin="round"/>
<path d="M117.7 106.4C117.7 106.4 147.5 80.1 183.8 106.4" stroke="white" stroke-width="5" stroke-miterlimit="10" stroke-linecap="round" stroke-linejoin="round"/>
<path d="M190 112.6L194.5 116.6" stroke="white" stroke-width="5" stroke-miterlimit="10" stroke-linecap="round" stroke-linejoin="round"/>
</svg>
