<svg width="300" height="300" viewBox="0 0 300 300" fill="none" xmlns="http://www.w3.org/2000/svg">
<path d="M131.1 115.5L171.5 113.5L178.5 130.3L239.6 159C242.2 161.3 242.5 165.4 240.2 168C239 169.4 237.2 170.2 235.4 170.2L203.3 183.5C169.1 197.7 130.6 197 96.9 181.7L71.6 170.2C68.1 170.2 65.2 167.3 65.2 163.8C65.2 161.8 66.1 159.9 67.7 158.7L77.3 151.4L122.1 132.8L131.1 115.5Z" fill="#B0E6F8"/>
<path d="M258.4 95.8C258.6 96.7 259.2 97.4 260.1 97.5L270.6 99.8C270.8 99.8 271 100 270.9 100.3C270.9 100.5 270.7 100.6 270.6 100.6C267.8 101.2 262.6 102.4 260.1 102.9C259.2 103 258.5 103.7 258.4 104.6L255.7 122.9C255.6 123.2 255.3 123.3 255.1 123.3C254.9 123.3 254.8 123.1 254.7 122.9L252 104.6C251.8 103.7 251.2 103 250.3 102.9C247.8 102.4 242.6 101.2 239.7 100.6C239.5 100.6 239.3 100.4 239.4 100.1C239.4 99.9 239.6 99.8 239.7 99.8C242.5 99.2 247.7 98 250.3 97.5C251.2 97.3 251.9 96.7 252 95.8L254.7 77.5C254.8 77.2 255.1 77.1 255.3 77.1C255.5 77.1 255.6 77.3 255.7 77.5C256.5 83.2 258.3 94.7 258.4 95.8Z" fill="#B0E6F8"/>
<path d="M82.4999 227.8C82.6999 228.7 83.2999 229.4 84.1999 229.5L94.7999 231.9C94.9999 231.9 95.1999 232.1 95.1999 232.3C95.1999 232.5 94.9999 232.7 94.7999 232.7C91.9999 233.3 86.7999 234.5 84.1999 235.1C83.2999 235.3 82.5999 235.9 82.4999 236.8L79.7999 255C79.6999 255.3 79.3999 255.4 79.1999 255.4C78.9999 255.4 78.8999 255.2 78.7999 255L75.9999 236.8C75.8999 235.9 75.1999 235.2 74.2999 235C71.7999 234.4 66.5999 233.3 63.7999 232.6C63.5999 232.6 63.3999 232.4 63.3999 232.2C63.3999 232 63.5999 231.8 63.7999 231.8C66.5999 231.2 71.7999 230 74.2999 229.4C75.1999 229.3 75.8999 228.6 75.9999 227.7L78.6999 209.4C78.7999 209.1 79.0999 209 79.2999 209C79.4999 209 79.5999 209.2 79.6999 209.4C80.6999 215.2 82.3999 226.7 82.4999 227.8Z" fill="#B0E6F8"/>
<path d="M171.6 107.5L174.9 121.8C177 131 183.9 138.4 192.9 141.1L221 150C235.5 154.5 238.1 163.6 246.9 176L254.4 186.5" stroke="#363636" stroke-width="10" stroke-linecap="round" stroke-linejoin="round"/>
<path d="M48.3 186.5L55.8 176C64.6 163.6 67.3001 154.5 81.8001 150L110 141.2C119 138.4 125.9 131 128 121.9L131.3 107.6" stroke="#363636" stroke-width="10" stroke-linecap="round" stroke-linejoin="round"/>
<path d="M182.9 160.5L166.9 172.1" stroke="#363636" stroke-width="4" stroke-linecap="round" stroke-linejoin="round"/>
<path d="M120.5 160.5L136.5 172.1" stroke="#363636" stroke-width="4" stroke-linecap="round" stroke-linejoin="round"/>
<path d="M185 72.6C185 91.5 169.7 116.8 150.8 116.8C131.9 116.8 116.5 91.5 116.5 72.6" stroke="#363636" stroke-width="10" stroke-linecap="round" stroke-linejoin="round"/>
</svg>
