<svg width="300" height="300" viewBox="0 0 300 300" fill="none" xmlns="http://www.w3.org/2000/svg">
<path d="M205 163.7C209.8 173.9 219 194 217.7 198C217.7 198 157.9 203.6 112.3 166.8C108.8 164 110.8 158.2 115.3 158.2L195.6 157.9C199.7 157.8 203.3 160.1 205 163.7Z" fill="#B0E6F8"/>
<path d="M95.9001 61.5C95.9001 62.3 96.6001 63.1 97.5001 63.4L107.8 66.7C108.3 66.8 108.2 67.5 107.7 67.5C104.8 67.9 99.6001 68.6 97.0001 68.9C96.1001 69 95.3001 69.7 95.1001 70.5L90.7001 88.4C90.6001 88.9 89.7001 88.9 89.7001 88.3L88.6001 69.9C88.6001 69.1 87.9001 68.3 87.0001 68C84.5001 67.2 79.5001 65.6 76.7001 64.7C76.2001 64.6 76.3001 63.9 76.8001 63.9C79.7001 63.5 84.9001 62.8 87.5001 62.5C88.4001 62.4 89.2001 61.7 89.4001 60.9L93.8001 43C93.9001 42.5 94.8001 42.5 94.8001 43.1C95.2001 48.8 95.9001 60.4 95.9001 61.5Z" fill="#B0E6F8"/>
<path d="M203.4 233.8C203.4 234.3 203.8 234.7 204.3 234.9L210.3 236.8C210.6 236.9 210.6 237.2 210.3 237.3C208.6 237.5 205.5 237.9 204 238.1C203.5 238.2 203 238.5 202.9 239L200.3 249.5C200.2 249.8 199.7 249.8 199.7 249.4L199.1 238.6C199.1 238.1 198.7 237.7 198.2 237.5C196.7 237 193.8 236.1 192.2 235.6C191.9 235.5 191.9 235.2 192.2 235.1C193.9 234.9 197 234.5 198.5 234.3C199 234.2 199.5 233.9 199.6 233.4L202.2 222.9C202.3 222.6 202.8 222.6 202.8 223C203 226.4 203.4 233.2 203.4 233.8Z" fill="#B0E6F8"/>
<path d="M60.2001 112.7L189.1 116C193.3 116.1 197.6 115.4 201.6 114C210.9 110.6 229.9 105 245.5 108.8" fill="#B0E6F8"/>
<path d="M60.2001 112.7L189.1 116C193.3 116.1 197.6 115.4 201.6 114C210.9 110.6 229.9 105 245.5 108.8" stroke="#363636" stroke-width="10" stroke-miterlimit="10" stroke-linecap="round" stroke-linejoin="round"/>
<path d="M216 203.3C160.3 203.3 126.2 178 112.8 165.5C107.9 161 101.8 158 95.3 156.9L52.9 150.2" fill="#B0E6F8"/>
<path d="M216 203.3C160.3 203.3 126.2 178 112.8 165.5C107.9 161 101.8 158 95.3 156.9L52.9 150.2" stroke="#363636" stroke-width="10" stroke-miterlimit="10" stroke-linecap="round" stroke-linejoin="round"/>
<path d="M95.2001 157.7L198.3 157.4" stroke="#363636" stroke-width="6" stroke-miterlimit="10" stroke-linecap="round" stroke-linejoin="round" stroke-dasharray="4 4"/>
<path d="M242.2 259C218.1 242.1 208.3 158.3 208.3 158.3Z" fill="#B0E6F8"/>
<path d="M242.2 259C218.1 242.1 208.3 158.3 208.3 158.3" stroke="#363636" stroke-width="10" stroke-miterlimit="10" stroke-linecap="round" stroke-linejoin="round"/>
</svg>
